<?xml version="1.0" encoding="UTF-8" standalone="no"?>
<!DOCTYPE svg PUBLIC "-//W3C//DTD SVG 1.1//EN" "http://www.w3.org/Graphics/SVG/1.1/DTD/svg11.dtd">
<svg width="100%" height="100%" viewBox="0 0 244 72" version="1.1" xmlns="http://www.w3.org/2000/svg" xmlns:xlink="http://www.w3.org/1999/xlink" xml:space="preserve" xmlns:serif="http://www.serif.com/" style="fill-rule:evenodd;clip-rule:evenodd;stroke-linejoin:round;stroke-miterlimit:2;">
    <g transform="matrix(1.342491,0,0,1.342491,2.717714,67.066073)">
        <path d="M16.969,-17.094L29.375,-17.094L24.719,-32.188C24.573,-32.646 24.375,-33.385 24.125,-34.406C23.875,-35.427 23.552,-36.74 23.156,-38.344C22.885,-37.219 22.62,-36.146 22.359,-35.125C22.099,-34.104 21.833,-33.125 21.562,-32.188L16.969,-17.094ZM-0.5,0L15.281,-45.75L30.906,-45.75L46.719,0L34.312,0L32,-8.188L14.281,-8.188L11.906,0L-0.5,0Z" style="fill:white;fill-rule:nonzero;"/>
        <path d="M48.424,-41.406C48.424,-43.094 49.023,-44.531 50.221,-45.719C51.419,-46.906 52.862,-47.5 54.549,-47.5C56.299,-47.5 57.763,-46.917 58.94,-45.75C60.117,-44.583 60.705,-43.135 60.705,-41.406C60.705,-39.677 60.106,-38.208 58.908,-37C57.711,-35.792 56.257,-35.188 54.549,-35.188C52.882,-35.188 51.445,-35.802 50.237,-37.031C49.028,-38.26 48.424,-39.719 48.424,-41.406ZM48.987,0L48.987,-31.562L60.143,-31.562L60.143,0L48.987,0Z" style="fill:white;fill-rule:nonzero;"/>
        <g transform="matrix(1,0,0,1,-3.51046,0)">
            <path d="M67.004,0L67.004,-31.562L77.192,-31.562L77.192,-25.156C78.671,-27.719 80.379,-29.594 82.317,-30.781C84.254,-31.969 86.577,-32.562 89.286,-32.562C91.327,-32.562 93.145,-32.234 94.739,-31.578C96.333,-30.922 97.629,-29.979 98.629,-28.75C99.463,-27.688 100.057,-26.396 100.411,-24.875C100.765,-23.354 100.942,-21.083 100.942,-18.062L100.942,0L89.786,0L89.786,-16.906C89.786,-19.427 89.374,-21.26 88.551,-22.406C87.728,-23.552 86.411,-24.125 84.598,-24.125C82.286,-24.125 80.598,-23.271 79.536,-21.562C78.473,-19.854 77.942,-17.083 77.942,-13.25L77.942,0L67.004,0Z" style="fill:white;fill-rule:nonzero;"/>
        </g>
        <g transform="matrix(1,0,0,1,-4.51046,0)">
            <path d="M116.679,0L102.491,-31.562L114.366,-31.562L119.741,-17.625C119.804,-17.479 119.876,-17.302 119.96,-17.094C120.647,-15.26 121.074,-13.792 121.241,-12.688C121.387,-13.708 121.793,-15.073 122.46,-16.781C122.606,-17.156 122.71,-17.438 122.772,-17.625L128.147,-31.562L139.741,-31.562L125.397,0L116.679,0Z" style="fill:rgb(129,140,248);fill-rule:nonzero;"/>
        </g>
        <g transform="matrix(1,0,0,1,-4.51046,0)">
            <path d="M141.353,-41.406C141.353,-43.094 141.952,-44.531 143.15,-45.719C144.347,-46.906 145.79,-47.5 147.478,-47.5C149.228,-47.5 150.691,-46.917 151.868,-45.75C153.045,-44.583 153.634,-43.135 153.634,-41.406C153.634,-39.677 153.035,-38.208 151.837,-37C150.639,-35.792 149.186,-35.188 147.478,-35.188C145.811,-35.188 144.373,-35.802 143.165,-37.031C141.957,-38.26 141.353,-39.719 141.353,-41.406ZM141.915,0L141.915,-31.562L153.071,-31.562L153.071,0L141.915,0Z" style="fill:rgb(129,140,248);fill-rule:nonzero;"/>
        </g>
        <g transform="matrix(1,0,0,1,-6.51046,0)">
            <path d="M156.996,-2.625L159.308,-11.125C160.933,-9.708 162.719,-8.62 164.667,-7.859C166.615,-7.099 168.579,-6.719 170.558,-6.719C171.954,-6.719 173.016,-6.943 173.746,-7.391C174.475,-7.839 174.839,-8.49 174.839,-9.344C174.839,-10.74 173.371,-11.781 170.433,-12.469C169.475,-12.698 168.704,-12.896 168.121,-13.062C164.787,-13.979 162.365,-15.182 160.855,-16.672C159.344,-18.161 158.589,-20.094 158.589,-22.469C158.589,-25.531 159.74,-27.979 162.042,-29.812C164.344,-31.646 167.464,-32.562 171.402,-32.562C173.423,-32.562 175.48,-32.328 177.574,-31.859C179.667,-31.391 181.808,-30.667 183.996,-29.688L181.683,-22.031C180.204,-23.031 178.704,-23.792 177.183,-24.312C175.662,-24.833 174.141,-25.094 172.621,-25.094C171.35,-25.094 170.391,-24.896 169.746,-24.5C169.1,-24.104 168.777,-23.531 168.777,-22.781C168.777,-21.656 170.235,-20.708 173.152,-19.938C173.818,-19.75 174.318,-19.615 174.652,-19.531C178.506,-18.427 181.188,-17.13 182.699,-15.641C184.209,-14.151 184.964,-12.135 184.964,-9.594C184.964,-6.365 183.725,-3.755 181.246,-1.766C178.766,0.224 175.485,1.219 171.402,1.219C168.631,1.219 166.058,0.901 163.683,0.266C161.308,-0.37 159.079,-1.333 156.996,-2.625Z" style="fill:rgb(129,140,248);fill-rule:nonzero;"/>
        </g>
    </g>
</svg>
