<?xml version="1.0" encoding="UTF-8" standalone="no"?>
<!DOCTYPE svg PUBLIC "-//W3C//DTD SVG 1.1//EN" "http://www.w3.org/Graphics/SVG/1.1/DTD/svg11.dtd">
<svg width="100%" height="100%" viewBox="0 0 2000 2000" version="1.1" xmlns="http://www.w3.org/2000/svg" xmlns:xlink="http://www.w3.org/1999/xlink" xml:space="preserve" xmlns:serif="http://www.serif.com/" style="fill-rule:evenodd;clip-rule:evenodd;stroke-linejoin:round;stroke-miterlimit:2;">
    <g transform="matrix(5.622623,0,0,5.622623,-961.371402,-925.475763)">
        <g transform="matrix(1.800336,0,0,1.800336,-1156.804181,-368.188943)">
            <path d="M916.194,446.108L783.807,446.108L783.807,411.927L873.428,411.927L890.934,394.421C890.934,378.844 890.793,363.26 890.51,362.77C889.945,361.792 836.856,331.141 835.726,331.141L835.726,299.282C838.936,299.179 842.166,299.927 845.067,301.527C867.793,314.083 890.409,327.14 912.645,340.543C917.973,343.761 921.279,349.487 921.402,355.711C921.891,381.669 921.891,407.784 921.402,433.742C921.309,438.434 919.408,442.843 916.194,446.108Z" style="fill:url(#_Linear1);"/>
        </g>
        <g transform="matrix(-0.900168,-1.559137,1.559137,-0.900168,485.155056,2003.087799)">
            <path d="M917.397,446.108L814.888,446.108C813.156,445.114 811.396,444.1 809.637,443.085L803.23,419.172L807.412,411.927L873.428,411.927L890.934,394.421C890.934,378.844 890.793,363.26 890.51,362.77C889.945,361.792 836.856,331.141 835.726,331.141L835.726,300.199C839.058,300.023 842.427,300.766 845.441,302.428C868.167,314.984 890.783,328.041 913.019,341.444C918.347,344.662 921.653,350.388 921.776,356.611C922.265,382.57 922.265,408.685 921.776,434.643C921.692,438.916 920.107,442.955 917.397,446.108Z" style="fill:url(#_Linear2);"/>
        </g>
        <g transform="matrix(-0.900168,1.559137,-1.559137,-0.900168,1717.481814,-606.122526)">
            <path d="M916.481,446.108L816.582,446.108C814.528,444.93 812.426,443.721 810.326,442.508L803.919,418.595L807.768,411.927L873.428,411.927L890.934,394.421C890.934,378.844 890.793,363.26 890.51,362.77C890.275,362.364 880.97,356.833 870.093,350.507L840.962,300.051C842.41,300.427 843.822,300.985 845.163,301.724C867.888,314.28 890.505,327.337 912.741,340.74C918.069,343.958 921.375,349.684 921.498,355.908C921.987,381.866 921.987,407.981 921.498,433.94C921.407,438.538 919.579,442.864 916.481,446.108Z" style="fill:url(#_Linear3);"/>
        </g>
    </g>
    <defs>
        <linearGradient id="_Linear1" x1="0" y1="0" x2="1" y2="0" gradientUnits="userSpaceOnUse" gradientTransform="matrix(138.725964,0,-0,138.725964,783.806595,370.52113)"><stop offset="0" style="stop-color:black;stop-opacity:1"/><stop offset="1" style="stop-color:rgb(128,128,128);stop-opacity:1"/></linearGradient>
        <linearGradient id="_Linear2" x1="0" y1="0" x2="1" y2="0" gradientUnits="userSpaceOnUse" gradientTransform="matrix(168.679897,96.976572,-96.976572,168.679897,750.941684,345.860089)"><stop offset="0" style="stop-color:black;stop-opacity:1"/><stop offset="1" style="stop-color:rgb(128,128,128);stop-opacity:1"/></linearGradient>
        <linearGradient id="_Linear3" x1="0" y1="0" x2="1" y2="0" gradientUnits="userSpaceOnUse" gradientTransform="matrix(116.768965,7.140553,-7.140553,116.768965,800.963692,426.291911)"><stop offset="0" style="stop-color:black;stop-opacity:1"/><stop offset="1" style="stop-color:rgb(128,128,128);stop-opacity:1"/></linearGradient>
    </defs>
</svg>
